<?xml version="1.0" standalone="no"?><!DOCTYPE svg PUBLIC "-//W3C//DTD SVG 1.1//EN" "http://www.w3.org/Graphics/SVG/1.1/DTD/svg11.dtd"><svg t="1617248231335" class="icon" viewBox="0 0 1024 1024" version="1.1" xmlns="http://www.w3.org/2000/svg" p-id="11050" data-spm-anchor-id="a313x.7781069.0.i33" width="200" height="200" xmlns:xlink="http://www.w3.org/1999/xlink"><defs><style type="text/css"></style></defs><path d="M356.352 884.224h7.168l2.048-6.144 5.632 2.048-1.536 4.608h26.624v6.144h-28.672l-2.56 7.68h10.24v-6.656h6.144v6.656h14.336v6.144H381.44v6.144h14.336v6.144H381.44v6.656h-6.144v-7.168H355.84v-6.144h19.456v-6.144h-18.432l4.608-13.824h-5.12v-6.144z m14.848 76.288c-5.12 0-9.728-4.608-9.728-9.728v-14.336c0-5.12 4.096-9.728 9.728-9.728h52.736c5.12 0 9.728 4.608 9.728 9.728v14.336c0 5.12-4.608 9.728-9.728 9.728H371.2z m-3.584-19.968h59.904v-4.096c0-2.048-1.536-3.584-3.584-3.584H371.2c-2.048 0-3.584 1.536-3.584 3.584v4.096z m56.32 13.824c2.048 0 3.584-1.536 3.584-3.584v-4.096h-59.904v4.096c0 2.048 1.536 3.584 3.584 3.584h52.736z m13.824-69.12h-25.088c-3.072 0-5.12 2.56-5.12 5.12v4.608h30.72v6.144h-6.144v23.04h-6.144v-23.04H407.04l-0.512 22.528h-6.144l1.024-33.28c0-6.144 5.12-11.264 11.264-11.264h25.088v6.144z m15.36-4.096h69.12v6.144h-32.256c-0.512 8.192-1.536 15.36-3.072 21.504h38.912v6.144h-27.136v34.304c0 3.072 2.56 5.12 5.12 5.12h24.064v6.144h-24.064c-6.144 0-11.264-5.12-11.264-11.264v-34.304h-7.168c-6.144 21.504-18.432 34.816-35.328 46.08l-3.584-5.12c15.36-10.24 26.624-22.016 32.256-40.96h-29.184V908.8h31.232c1.536-6.144 2.56-13.312 3.584-21.504H453.12v-6.144z m101.888 41.472l-1.536 4.608h26.112v6.144h-4.608c-1.536 6.656-5.12 12.288-10.24 16.384l12.8 5.12-2.048 5.632-16.896-7.168c-5.632 3.072-12.8 5.12-20.48 6.656l-1.024-6.144c5.12-1.024 9.728-2.048 13.824-4.096l-1.536-0.512c-4.608-2.048-6.144-5.12-6.144-9.216 0-2.048 0.512-3.584 1.024-5.12l0.512-2.048h-7.68v-6.144h10.24l2.56-6.656 5.12 2.56z m5.632-44.032V896h17.92v6.144h-17.92V921.6h-6.144v-19.456h-17.92V896h17.92v-17.408h6.144z m-23.04 39.936l5.632-15.872 5.632 2.048-5.632 15.872-5.632-2.048z m5.632-38.912l5.632 12.8-5.632 2.56-5.632-12.8 5.632-2.56z m8.192 64.512l6.144 2.56c5.12-3.584 8.704-7.68 10.24-13.824h-16.896l-1.536 4.096c-0.512 1.024-0.512 2.56-0.512 3.072 0 2.048 1.024 3.584 2.56 4.096z m19.968-23.552l-5.632-15.872 5.632-2.048 5.632 15.872-5.632 2.048z m5.632-38.912l-5.12 12.8-5.632-2.56 5.632-12.8 5.12 2.56z m11.264 20.992l11.776 20.992a168.888 168.888 0 0 0 8.192-30.208h-25.6l2.56-14.848 6.144 1.024-1.024 7.68h27.648v6.144H614.4c-2.56 14.848-6.144 27.136-10.752 36.864l14.848 26.624-5.12 3.072-12.8-23.04c-4.608 9.728-10.24 16.896-15.872 23.04l-4.608-4.096c6.144-6.656 11.776-14.848 16.896-25.6l-13.824-25.6 5.12-2.048z m40.96 51.712h4.608c2.56 0 5.12-2.048 5.12-5.12V931.84l-9.728 5.632-3.072-5.12 12.288-7.168v-28.16H627.2v-6.144h11.264v-11.776h6.144v11.776h7.168v6.144h-6.656v25.088l7.168-4.096 3.072 5.12-10.24 5.632v20.992c0 6.144-5.12 11.264-11.264 11.264h-4.608v-6.656z m25.088 6.144l2.56-71.68c0.512-5.12 4.608-9.728 9.728-9.728h32.768c5.12 0 9.728 4.096 9.728 9.728v6.144c0 5.12-4.608 9.728-9.728 9.728h-36.864l-2.048 55.808h-6.144z m8.192-61.952h36.352c2.048 0 3.584-1.536 3.584-3.584v-6.144c0-2.048-1.536-3.584-3.584-3.584h-32.768c-2.048 0-3.584 1.536-3.584 3.584v9.728z m28.16 8.192v9.728h17.92v6.144h-17.92v9.216h8.192c4.608 0 8.192 3.584 8.192 8.192v12.8c0 4.608-3.584 8.192-8.192 8.192h-23.04c-4.608 0-8.192-3.584-8.192-8.192v-12.8c0-4.608 3.584-8.192 8.192-8.192h8.704v-9.216h-17.92v-6.144h17.92v-9.728h6.144z m10.24 33.28c0-1.024-1.024-2.048-2.048-2.048h-23.04c-1.024 0-2.048 1.024-2.048 2.048v12.8c0 1.024 1.024 2.048 2.048 2.048h23.04c1.024 0 2.048-1.024 2.048-2.048v-12.8z" fill="#dbdbdb" p-id="11051" data-spm-anchor-id="a313x.7781069.0.i34" class=""></path><path d="M373.248 680.96c-10.24 0-18.944-8.192-18.944-18.432V227.84c0-10.24 8.704-18.432 18.944-18.432h336.896c10.24 0 18.944 8.192 18.944 18.432v347.136c0 1.536 0 1.536-17.408 18.944l-89.088 87.04H373.248z" fill="#dbdbdb" p-id="11052"></path><path d="M698.368 189.952c8.192 0 14.848 6.656 14.848 14.336v354.816L607.232 663.04H353.28c-8.192 0-14.848-6.656-14.848-14.336V204.288c0-8.192 6.656-14.336 14.848-14.336h345.088m0-9.216H353.28c-12.8 0-24.064 10.24-24.064 23.04v444.416c0 12.8 10.752 23.04 24.064 23.04h257.024l2.56-2.56 53.248-52.224 36.352-35.84 12.288-11.776c6.656-6.656 7.168-7.168 7.168-10.752V203.776c0-12.288-10.752-23.04-23.552-23.04z" fill="#dbdbdb" p-id="11053"></path><path d="M649.728 261.12h-217.6c-3.072 0-5.632 2.56-5.632 5.632v2.56c0 3.072 2.56 5.632 5.632 5.632h217.6c3.072 0 5.632-2.56 5.632-5.632v-2.56c0-3.072-2.56-5.632-5.632-5.632z m0 94.208h-217.6c-3.072 0-5.632 2.56-5.632 5.632v2.56c0 3.072 2.56 5.632 5.632 5.632h217.6c3.072 0 5.632-2.56 5.632-5.632v-2.56c0-3.072-2.56-5.632-5.632-5.632z m-39.424 314.368V561.152h110.592L610.304 669.696z" fill="#dbdbdb" p-id="11054"></path><path d="M610.304 674.304c-0.512 0-1.024 0-1.536-0.512-1.536-0.512-2.56-2.048-2.56-4.096V561.152c0-2.56 2.048-4.096 4.096-4.096h110.592c1.536 0 3.072 1.024 4.096 2.56 0.512 1.536 0.512 3.584-1.024 4.608L613.376 672.768c-0.512 1.024-1.536 1.536-3.072 1.536z m4.608-108.544v93.696l96.256-93.696h-96.256zM462.336 461.824c0 7.68 4.096 14.848 11.264 18.944 6.656 4.096 15.36 4.096 22.016 0 6.656-4.096 11.264-11.264 11.264-18.944s-4.096-14.848-11.264-18.944c-6.656-4.096-15.36-4.096-22.016 0-7.168 4.096-11.264 11.264-11.264 18.944z m111.104 0c0 7.68 4.096 14.848 11.264 18.944 6.656 4.096 15.36 4.096 22.016 0 6.656-4.096 11.264-11.264 11.264-18.944s-4.096-14.848-11.264-18.944c-6.656-4.096-15.36-4.096-22.016 0-6.656 4.096-11.264 11.264-11.264 18.944z m-32.768 57.856c-11.264 0-23.04 5.12-34.816 14.848-2.048 1.536-2.56 5.12-0.512 7.168s5.12 2.56 7.168 0.512c20.48-16.896 36.864-16.896 56.32 0 2.048 2.048 5.632 1.536 7.168-0.512 2.048-2.048 1.536-5.12-0.512-7.168-12.288-10.24-23.552-14.848-34.816-14.848m282.624 207.36H245.76c-2.56 0-4.096-2.048-4.096-4.096s2.048-4.096 4.096-4.096h577.536c2.56 0 4.096 2.048 4.096 4.096s-2.048 4.096-4.096 4.096z m135.68 0H844.288c-2.56 0-4.096-2.048-4.096-4.096s2.048-4.096 4.096-4.096h114.688c2.56 0 4.096 2.048 4.096 4.096 0.512 2.048-1.536 4.096-4.096 4.096z m-733.184 0h-86.528c-2.56 0-4.096-2.048-4.096-4.096s2.048-4.096 4.096-4.096h86.016c2.56 0 4.096 2.048 4.096 4.096 0.512 2.048-1.536 4.096-3.584 4.096z m549.376 38.912H344.064c-2.56 0-4.096-2.048-4.096-4.096 0-2.56 2.048-4.096 4.096-4.096h431.104c2.56 0 4.096 2.048 4.096 4.096s-1.536 4.096-4.096 4.096z m-451.072 0H266.24c-2.56 0-4.096-2.048-4.096-4.096 0-2.56 2.048-4.096 4.096-4.096h57.344c2.56 0 4.096 2.048 4.096 4.096 0.512 2.048-1.536 4.096-3.584 4.096z m-204.8-38.912H76.288c-2.56 0-4.096-2.048-4.096-4.096s2.048-4.096 4.096-4.096h43.008c2.56 0 4.096 2.048 4.096 4.096 0.512 2.048-1.536 4.096-4.096 4.096z m39.936-115.712c0 8.704 4.608 16.384 12.288 20.48 7.68 4.096 16.896 4.096 24.576 0s12.288-12.288 12.288-20.48c0-8.704-4.608-16.384-12.288-20.48a26.112 26.112 0 0 0-24.576 0c-7.68 4.096-12.288 11.776-12.288 20.48z" fill="#dbdbdb" p-id="11055"></path><path d="M183.808 639.488c-15.872 0-28.672-12.8-28.672-28.16s12.8-28.16 28.672-28.16 28.672 12.8 28.672 28.16-13.312 28.16-28.672 28.16z m0-47.616c-11.264 0-19.968 8.704-19.968 19.968 0 10.752 9.216 19.456 19.968 19.456s19.968-8.704 19.968-19.456c0-11.264-9.216-19.968-19.968-19.968zM159.232 194.56c0 10.752 9.216 19.456 19.968 19.456s19.968-8.704 19.968-19.456c0-7.168-3.584-13.312-10.24-16.896-6.144-3.584-13.824-3.584-19.968 0s-9.728 9.728-9.728 16.896z" fill="#dbdbdb" p-id="11056"></path><path d="M179.2 218.624c-13.312 0-24.576-10.752-24.576-24.064s10.752-24.064 24.576-24.064 24.576 10.752 24.576 24.064-11.264 24.064-24.576 24.064z m0-39.424c-8.704 0-15.872 7.168-15.872 15.36 0 8.704 7.168 15.36 15.872 15.36s15.872-7.168 15.872-15.36-7.168-15.36-15.872-15.36zM621.568 71.68c0 10.752 9.216 19.968 19.968 19.968 11.264 0 19.968-8.704 19.968-19.968 0-10.752-9.216-19.456-19.968-19.456s-19.968 8.704-19.968 19.456z" fill="#dbdbdb" p-id="11057"></path><path d="M642.048 95.744c-13.312 0-24.576-10.752-24.576-24.064s10.752-24.064 24.576-24.064c13.312 0 24.576 10.752 24.576 24.064-0.512 13.312-11.264 24.064-24.576 24.064z m0-39.424c-8.704 0-15.872 7.168-15.872 15.36s7.168 15.36 15.872 15.36 15.872-7.168 15.872-15.36c-0.512-8.704-7.168-15.36-15.872-15.36zM244.224 231.424c0 4.608 2.56 8.704 6.144 10.752 4.096 2.048 8.704 2.048 12.8 0s6.144-6.144 6.144-10.752c0-4.608-2.56-8.704-6.144-10.752-4.096-2.048-8.704-2.048-12.8 0-3.584 2.048-6.144 6.144-6.144 10.752z" fill="#dbdbdb" p-id="11058"></path><path d="M257.024 245.76c-8.192 0-14.848-6.656-14.848-14.336s6.656-14.336 14.848-14.336 14.848 6.656 14.848 14.336-6.656 14.336-14.848 14.336z m0-24.576c-5.632 0-10.752 4.608-10.752 10.24s4.608 10.24 10.752 10.24c5.632 0 10.752-4.608 10.752-10.24s-5.12-10.24-10.752-10.24z m473.6 399.36c0 4.608 2.56 8.704 6.144 10.752 4.096 2.048 8.704 2.048 12.8 0s6.144-6.144 6.144-10.752c0-4.608-2.56-8.704-6.144-10.752-4.096-2.048-8.704-2.048-12.8 0-3.584 2.56-6.144 6.656-6.144 10.752zM419.328 60.928c0 4.608 2.56 8.704 6.144 10.752 4.096 2.048 8.704 2.048 12.8 0s6.144-6.144 6.144-10.752c0-4.608-2.56-8.704-6.144-10.752-4.096-2.048-8.704-2.048-12.8 0-3.584 2.048-6.144 6.144-6.144 10.752z" fill="#dbdbdb" p-id="11059"></path><path d="M432.128 75.264c-8.192 0-14.848-6.656-14.848-14.336 0-8.192 6.656-14.336 14.848-14.336s14.848 6.656 14.848 14.336-6.656 14.336-14.848 14.336z m0-24.576c-5.632 0-10.752 4.608-10.752 10.24s4.608 10.24 10.752 10.24c5.632 0 10.752-4.608 10.752-10.24-0.512-5.632-5.12-10.24-10.752-10.24zM798.72 348.16c0 4.608 2.56 8.704 6.144 10.752 4.096 2.048 8.704 2.048 12.8 0s6.144-6.144 6.144-10.752c0-4.608-2.56-8.704-6.144-10.752-4.096-2.048-8.704-2.048-12.8 0-3.584 2.048-6.144 6.144-6.144 10.752z" fill="#dbdbdb" p-id="11060"></path><path d="M811.52 362.496c-8.192 0-14.848-6.656-14.848-14.336 0-8.192 6.656-14.336 14.848-14.336s14.848 6.656 14.848 14.336c0 8.192-6.656 14.336-14.848 14.336z m0-24.576c-5.632 0-10.752 4.608-10.752 10.24s4.608 10.24 10.752 10.24c5.632 0 10.752-4.608 10.752-10.24-0.512-5.632-5.12-10.24-10.752-10.24z m70.656 261.632c0 3.584 2.048 6.656 5.12 8.704 3.072 1.536 7.168 1.536 10.24 0s5.12-5.12 5.12-8.704-2.048-6.656-5.12-8.704c-3.072-1.536-7.168-1.536-10.24 0-3.584 2.048-5.12 5.12-5.12 8.704zM494.592 102.4c0 3.584 2.048 7.168 5.632 9.216 3.584 2.048 7.68 2.048 10.752 0 3.584-2.048 5.632-5.12 5.632-9.216 0-3.584-2.048-7.168-5.632-9.216-3.584-2.048-7.68-2.048-10.752 0-3.584 2.048-5.632 5.12-5.632 9.216z" fill="#dbdbdb" p-id="11061"></path><path d="M505.344 115.2c-7.168 0-12.8-5.632-12.8-12.8s5.632-12.8 12.8-12.8 12.8 5.632 12.8 12.8c0 6.656-5.632 12.8-12.8 12.8z m0-21.504c-4.608 0-8.704 3.584-8.704 8.704 0 4.608 4.096 8.704 8.704 8.704 4.608 0 8.704-3.584 8.704-8.704-0.512-4.608-4.096-8.704-8.704-8.704z m407.552 378.368c0 2.56 1.536 4.608 3.584 6.144 2.048 1.024 5.12 1.024 7.168 0s3.584-3.584 3.584-6.144-1.536-4.608-3.584-6.144c-2.048-1.024-5.12-1.024-7.168 0-2.048 1.536-3.584 3.584-3.584 6.144z" fill="#dbdbdb" p-id="11062"></path><path d="M920.064 480.768c-4.608 0-8.704-3.584-8.704-8.192 0-4.608 4.096-8.192 8.704-8.192 4.608 0 8.704 3.584 8.704 8.192 0 4.096-4.096 8.192-8.704 8.192z m0-14.336c-3.072 0-5.632 2.56-5.632 5.632 0 3.072 2.56 5.632 5.632 5.632 3.072 0 5.632-2.56 5.632-5.632 0-3.072-2.56-5.632-5.632-5.632zM55.296 539.648c0 4.096 3.072 7.168 7.168 7.168s7.168-3.072 7.168-7.168-3.072-7.168-7.168-7.168-7.168 3.072-7.168 7.168z" fill="#dbdbdb" p-id="11063"></path><path d="M62.464 547.84c-4.608 0-8.704-3.584-8.704-8.192 0-4.608 4.096-8.704 8.704-8.704 4.608 0 8.704 3.584 8.704 8.704 0 4.608-4.096 8.192-8.704 8.192z m0-13.824c-3.072 0-5.632 2.56-5.632 5.632 0 3.072 2.56 5.632 5.632 5.632 3.072 0 5.632-2.56 5.632-5.632 0-3.072-2.56-5.632-5.632-5.632z m47.616-217.088c0 4.096 3.072 7.168 7.168 7.168s7.168-3.072 7.168-7.168-3.072-7.168-7.168-7.168c-3.584 0.512-7.168 3.584-7.168 7.168z" fill="#dbdbdb" p-id="11064"></path><path d="M117.248 325.632c-4.608 0-8.704-3.584-8.704-8.192 0-4.608 4.096-8.192 8.704-8.192s8.704 3.584 8.704 8.192c0 4.608-3.584 8.192-8.704 8.192z m0-14.336c-3.072 0-5.632 2.56-5.632 5.632 0 3.072 2.56 5.632 5.632 5.632 3.072 0 5.632-2.56 5.632-5.632 0.512-3.072-2.048-5.632-5.632-5.632z m213.504-193.024H302.08c-1.536 0-3.072-1.024-3.072-2.56s1.536-2.56 3.072-2.56h28.672c1.536 0 3.072 1.024 3.072 2.56s-1.024 2.56-3.072 2.56z" fill="#dbdbdb" p-id="11065"></path><path d="M316.416 134.656c-1.536 0-3.072-1.024-3.072-2.56v-31.744c0-1.536 1.536-2.56 3.072-2.56s3.072 1.024 3.072 2.56v31.744c0 1.024-1.536 2.56-3.072 2.56z m493.568 96.768h-33.28c-0.512 0-1.536-0.512-2.048-1.024s-1.024-1.024-1.024-2.048c0-1.536 1.536-2.56 3.072-2.56h33.28c1.536 0 3.072 1.024 3.072 2.56s-1.536 3.072-3.072 3.072z" fill="#dbdbdb" p-id="11066"></path><path d="M793.088 247.296c-1.536 0-3.072-1.024-3.072-2.56v-31.744c0-1.536 1.536-2.56 3.072-2.56s3.072 1.024 3.072 2.56v31.744c0 1.536-1.536 2.56-3.072 2.56z m-524.8 260.096H235.52c-0.512 0-1.536-0.512-2.048-1.024s-1.024-1.024-1.024-2.048c0-1.536 1.536-2.56 3.072-2.56h33.28c1.536 0 3.072 1.024 3.072 2.56-0.512 1.536-1.536 3.072-3.584 3.072z" fill="#dbdbdb" p-id="11067"></path><path d="M251.904 523.264c-1.536 0-3.072-1.024-3.072-2.56V488.96c0-1.536 1.536-2.56 3.072-2.56s3.072 1.024 3.072 2.56v31.744c-0.512 1.536-1.536 2.56-3.072 2.56z" fill="#dbdbdb" p-id="11068"></path></svg>